<svg width="68" height="68" viewBox="0 0 68 68" fill="none" xmlns="http://www.w3.org/2000/svg">
<path d="M16.9397 11.2773C16.832 13.0738 17.096 14.8732 17.7152 16.5634C18.3344 18.2537 19.2955 19.7987 20.5388 21.1022C18.1226 21.7936 15.9593 23.1701 14.3115 25.0646C12.6637 26.9592 11.6021 29.2903 11.2557 31.7751C10.4202 37.7383 11.6459 43.8075 14.7305 48.982L15.6183 50.4756L15.7273 50.6351L19.3188 55.4602C20.0795 56.4829 21.0544 57.3277 22.1756 57.936C23.2968 58.5443 24.5374 58.9013 25.8109 58.9823C27.0845 59.0632 28.3604 58.8662 29.5498 58.4048C30.7393 57.9434 31.8137 57.2289 32.6982 56.3108C32.8017 56.2035 32.9257 56.1181 33.063 56.0597C33.2003 56.0014 33.348 55.9713 33.4972 55.9713C33.6464 55.9713 33.7941 56.0014 33.9314 56.0597C34.0687 56.1181 34.1927 56.2035 34.2962 56.3108C35.1807 57.2289 36.2551 57.9434 37.4446 58.4048C38.634 58.8662 39.91 59.0632 41.1835 58.9823C42.457 58.9013 43.6976 58.5443 44.8188 57.936C45.94 57.3277 46.9149 56.4829 47.6756 55.4602L51.2671 50.6326L51.3736 50.4731L52.2639 48.9795C55.35 43.8073 56.5783 37.74 55.7463 31.7777C55.5008 30.0208 54.8965 28.333 53.971 26.8186C53.0454 25.3043 51.8183 23.9957 50.3655 22.9738C48.9128 21.952 47.2654 21.2386 45.5252 20.8779C43.7851 20.5172 41.9893 20.5169 40.2491 20.8769L35.4274 21.8743H35.4198C35.4959 19.8997 35.8053 17.7732 36.4115 15.9556C37.1471 13.7582 38.1667 12.4367 39.303 11.9658C39.7688 11.7718 40.1383 11.401 40.3303 10.935C40.5222 10.4691 40.5208 9.94609 40.3264 9.48114C40.132 9.01619 39.7605 8.64737 39.2936 8.4558C38.8268 8.26424 38.3028 8.26563 37.837 8.45966C35.1687 9.57101 33.6519 12.2063 32.8022 14.7531L32.6856 15.1125C32.0616 13.9075 31.2548 12.8059 30.2938 11.8469C28.9784 10.5323 27.3983 9.51177 25.658 8.85275C23.9176 8.19374 22.0569 7.91134 20.199 8.02424C19.3511 8.07295 18.5506 8.43057 17.9494 9.02926C17.3481 9.62794 16.988 10.4261 16.9372 11.2722M24.3586 31.0562C23.4785 31.2309 22.6719 31.8486 22.1672 33.0257C21.6523 34.2257 21.4697 36.0053 22.0252 38.2255C22.1393 38.7111 22.0575 39.222 21.7974 39.6478C21.5372 40.0736 21.1196 40.3802 20.6349 40.5013C20.1501 40.6223 19.6371 40.5481 19.2067 40.2947C18.7763 40.0413 18.4631 39.629 18.3347 39.147C17.6245 36.3066 17.759 33.6535 18.6695 31.5296C19.5902 29.3854 21.32 27.788 23.6129 27.3323C23.8614 27.2737 24.1192 27.2657 24.3708 27.3087C24.6225 27.3517 24.8629 27.4448 25.0778 27.5825C25.2926 27.7202 25.4775 27.8996 25.6214 28.1101C25.7653 28.3206 25.8652 28.5579 25.9153 28.8078C25.9654 29.0577 25.9645 29.3151 25.9128 29.5646C25.8611 29.8142 25.7596 30.0508 25.6144 30.2604C25.4691 30.4699 25.2831 30.6482 25.0673 30.7845C24.8516 30.9208 24.6106 31.0148 24.3586 31.0562Z" fill="#E44444"/>
</svg>
