<svg width="67" height="67" viewBox="0 0 67 67" fill="none" xmlns="http://www.w3.org/2000/svg">
<g clip-path="url(#clip0_2528_1117)">
<path d="M43.6718 20.7237L38.5111 19.8186L38.9571 17.2857L44.2879 18.2204C44.6862 17.5443 45.2546 16.9837 45.9369 16.5943C46.6191 16.2048 47.3917 15.9999 48.1778 16H53.1851C53.6233 16 53.9778 16.3536 53.9778 16.7907V24.2093C53.9778 24.6464 53.622 25 53.1851 25H48.1778C47.0201 25.0001 45.9068 24.5562 45.0679 23.7603C44.2293 22.9643 43.7294 21.8771 43.6718 20.7237Z" fill="#E44444"/>
<path fill-rule="evenodd" clip-rule="evenodd" d="M45.9931 27.0096L44.7945 36.5715H35.9333V34.9257C35.9333 34.414 35.4461 34 34.8455 34H24.4442C17.2651 34 11.4445 38.95 11.4445 45.0572C11.4445 45.34 11.7151 45.5715 12.0502 45.5715H17.9173C18.0754 47.3304 18.8878 48.9668 20.1943 50.1585C21.501 51.3502 23.2074 52.011 24.9778 52.011C26.7482 52.011 28.4546 51.3502 29.7612 50.1585C31.0678 48.9668 31.8802 47.3304 32.0383 45.5715H33.2112C33.2602 45.5715 33.3083 45.5706 33.3556 45.5689V45.5715H46.7162C46.9765 46.4457 47.7254 47.005 48.5438 47.1786C49.0905 48.8129 50.2163 50.1919 51.7101 51.0567C53.2038 51.9215 54.9626 52.2126 56.6564 51.8752C58.3501 51.5378 59.862 50.5954 60.9083 49.2247C61.9546 47.854 62.4633 46.1494 62.3388 44.431C62.9124 43.8345 63.2011 42.9589 62.8479 42.0113C62.4426 40.9251 61.8153 39.935 61.0058 39.1037C60.1963 38.2725 59.2223 37.6182 58.1457 37.1826C57.0691 36.747 55.9134 36.5394 54.7522 36.5731C53.5909 36.6069 52.4493 36.8813 51.4 37.3789V27.5714H48.1778C47.4136 27.5718 46.6619 27.3784 45.9931 27.0096ZM28.1356 45.5715H21.82C21.968 46.298 22.3632 46.9513 22.9386 47.4206C23.5141 47.8897 24.2345 48.1461 24.9778 48.1461C25.7211 48.1461 26.4415 47.8897 27.0169 47.4206C27.5924 46.9513 27.9876 46.298 28.1356 45.5715ZM52.5523 46.6617C52.8954 47.196 53.3893 47.617 53.9719 47.8719C54.5543 48.1267 55.1994 48.2038 55.8258 48.0938C56.4522 47.9837 57.0319 47.6912 57.4921 47.253C57.9522 46.815 58.2721 46.251 58.4116 45.6319L52.5523 46.6617Z" fill="#E44444"/>
<path d="M18.108 28.8571C18.133 28.7869 18.1601 28.7175 18.1892 28.6488L18.108 28.8571ZM18.108 28.8571C17.9662 29.2596 17.8889 29.6928 17.8889 30.1428V31.4286H37.2222V30.1428C37.2206 29.7083 37.1526 29.2959 37.0186 28.906L37.0031 28.8571C36.7365 28.1048 36.2424 27.4535 35.5892 26.9929C34.9359 26.5324 34.1556 26.2853 33.3556 26.2857H21.7556C20.9954 26.2855 20.2521 26.5089 19.6185 26.9278C18.9849 27.3467 18.489 27.9427 18.1931 28.6411" fill="#E44444"/>
<path d="M33.3556 17.2857H11.4445V19.8571H33.3556V17.2857Z" fill="#E44444"/>
<path d="M16.6 23.7143H5V26.2857H16.6V23.7143Z" fill="#E44444"/>
</g>
<defs>
<clipPath id="clip0_2528_1117">
<rect width="58" height="36" fill="white" transform="translate(5 16)"/>
</clipPath>
</defs>
</svg>
