<svg width="67" height="68" viewBox="0 0 67 68" fill="none" xmlns="http://www.w3.org/2000/svg">
<path d="M30.1503 11.0499L13.4003 23.7999C12.0045 24.8765 11.167 26.5482 11.167 28.3332V53.8332C11.167 56.9499 13.6795 59.4999 16.7503 59.4999H50.2503C53.3212 59.4999 55.8337 56.9499 55.8337 53.8332V28.3332C55.8337 26.5482 54.9962 24.8765 53.6003 23.7999L36.8503 11.0499C35.8821 10.3186 34.7073 9.92358 33.5003 9.92358C32.2934 9.92358 31.1186 10.3186 30.1503 11.0499ZM34.8962 35.4165C34.8962 37.7682 33.0257 39.6665 30.7087 39.6665V49.5832C30.7087 50.3765 30.0945 50.9999 29.3128 50.9999C28.5312 50.9999 27.917 50.3765 27.917 49.5832V39.6665C25.5999 39.6665 23.7295 37.7682 23.7295 35.4165V28.3332C23.7295 27.5399 24.3437 26.9166 25.1253 26.9166C25.907 26.9166 26.5212 27.5399 26.5212 28.3332V35.4165H27.917V28.3332C27.917 27.5399 28.5312 26.9166 29.3128 26.9166C30.0945 26.9166 30.7087 27.5399 30.7087 28.3332V35.4165H32.1045V28.3332C32.1045 27.5399 32.7187 26.9166 33.5003 26.9166C34.282 26.9166 34.8962 27.5399 34.8962 28.3332V35.4165ZM40.4795 50.9999C39.6978 50.9999 39.0837 50.3765 39.0837 49.5832V41.0832H37.6878C36.9062 41.0832 36.292 40.4599 36.292 39.6665V32.5832C36.292 30.0899 37.8832 27.9649 40.0887 27.2282C40.9541 26.9165 41.8753 27.6249 41.8753 28.5882V49.5832C41.8753 50.3765 41.2612 50.9999 40.4795 50.9999Z" fill="#E44444"/>
</svg>
