<svg width="384" height="117" viewBox="0 0 384 117" fill="none" xmlns="http://www.w3.org/2000/svg">
<g clip-path="url(#clip0_2328_19603)">
<path d="M58.38 116.64C69.912 116.628 81.1817 113.198 90.7645 106.782C100.347 100.367 107.813 91.2542 112.218 80.5965C116.623 69.9389 117.769 58.2146 115.512 46.9056C113.255 35.5966 107.696 25.2106 99.5373 17.0604C91.3787 8.91017 80.987 3.36168 69.6756 1.11625C58.3643 -1.12918 46.6412 0.0292444 35.9881 4.44511C25.335 8.86097 16.2302 16.336 9.82455 25.9254C3.41892 35.5148 6.10301e-06 46.7879 0 58.32C0.00393864 65.9826 1.51712 73.5695 4.45312 80.6473C7.38913 87.7252 11.6905 94.1554 17.1115 99.5709C22.5326 104.986 28.9673 109.281 36.0482 112.21C43.129 115.139 50.7174 116.644 58.38 116.64Z" fill="#E44444"/>
<path d="M56.1697 70.4201C53.6109 70.4204 51.1312 69.5334 49.153 67.9103C47.1749 66.2872 45.8207 64.0284 45.3213 61.5188C44.8218 59.0092 45.208 56.4042 46.414 54.1474C47.62 51.8906 49.5712 50.1218 51.9351 49.1424C54.2991 48.1629 56.9295 48.0335 59.3781 48.776C61.8268 49.5186 63.9423 51.0872 65.3641 53.2147C66.7859 55.3421 67.426 57.8968 67.1754 60.4433C66.9248 62.9898 65.799 65.3706 63.9897 67.1801C61.9152 69.2534 59.1027 70.4187 56.1697 70.4201ZM72.9897 32.2501H71.1697L70.1097 37.1201C67.2297 31.4001 58.6797 30.8101 54.1097 30.8101C39.7397 30.8101 27.2197 44.6101 27.2197 63.5901C27.2197 78.8601 36.3497 88.45 47.7997 88.45C54.1897 88.45 59.6297 86.95 64.1097 81.63L62.9497 86.9901H81.0097L89.2597 32.2901L72.9897 32.2501Z" fill="white"/>
<path d="M148.29 44.24H139.84L141.95 30.35H150.38L151.33 24.88C153.33 12.47 161.12 3.20998 176.33 3.20998C180.048 3.17773 183.751 3.67266 187.33 4.67998L185.1 18.57C182.924 18.0461 180.697 17.7644 178.46 17.73C172.33 17.73 168.87 20.67 168.03 25.83L167.29 30.36H181.44L179.44 44.25H165.17L158.43 88.65H141.54L148.29 44.24Z" fill="#212124"/>
<path d="M180.31 63.0701C180.31 44.2401 194.53 28.8701 213.48 28.8701C229.6 28.8701 241.18 40.1301 241.18 56.1201C241.18 74.8501 226.96 90.1201 207.79 90.1201C192.42 90.1101 180.31 79.0601 180.31 63.0701ZM224.75 57.1601C224.75 49.2701 219.91 44.0101 212.64 44.0101C203.27 44.0101 196.84 52.4301 196.84 62.1101C196.84 69.9001 201.58 75.0501 208.95 75.0501C218.12 75.0601 224.75 66.7501 224.75 57.1601Z" fill="#212124"/>
<path d="M247.5 63.0701C247.5 44.2401 261.72 28.8701 280.67 28.8701C296.79 28.8701 308.37 40.1301 308.37 56.1201C308.37 74.8501 294.15 90.1201 274.98 90.1201C259.61 90.1101 247.5 79.0601 247.5 63.0701ZM291.97 57.1601C291.97 49.2701 287.13 44.0101 279.86 44.0101C270.49 44.0101 264.06 52.4301 264.06 62.1101C264.06 69.9001 268.8 75.0501 276.17 75.0501C285.31 75.0601 291.97 66.7501 291.97 57.1601Z" fill="#212124"/>
<path d="M370.31 88.6299H355.77L355.67 79.4799C350.61 86.42 344.08 90.11 336.6 90.11C324.6 90.11 314.48 80.2199 314.48 63.9099C314.48 43.7099 329.01 28.9099 343.48 28.9099C351.17 28.9099 358.02 33.0099 360.97 39.3299L366.34 4.18994H383.17L370.31 88.6299ZM331.31 62.2199C331.31 70.3299 336.15 75.0599 343.01 75.0599C352.07 75.0599 358.81 66.9599 358.81 57.3899C358.81 49.2899 354.28 44.0299 346.81 44.0299C337.76 44.0299 331.34 52.5499 331.34 62.2199H331.31Z" fill="#212124"/>
</g>
<defs>
<clipPath id="clip0_2328_19603">
<rect width="383.17" height="116.65" fill="white"/>
</clipPath>
</defs>
</svg>
