<svg width="67" height="67" viewBox="0 0 67 67" fill="none" xmlns="http://www.w3.org/2000/svg">
<path d="M19.5417 44.6666C19.5417 46.202 18.2854 47.4583 16.75 47.4583C15.2146 47.4583 13.9583 46.202 13.9583 44.6666C13.9583 43.1312 15.2146 41.8749 16.75 41.8749C18.2854 41.8749 19.5417 43.1312 19.5417 44.6666ZM25.125 44.6666C23.5896 44.6666 22.3333 45.9228 22.3333 47.4583C22.3333 48.9937 23.5896 50.2499 25.125 50.2499C26.6604 50.2499 27.9167 48.9937 27.9167 47.4583C27.9167 45.9228 26.6604 44.6666 25.125 44.6666ZM11.1667 50.2499C9.63125 50.2499 8.375 51.5062 8.375 53.0416C8.375 54.577 9.63125 55.8333 11.1667 55.8333C12.7021 55.8333 13.9583 54.577 13.9583 53.0416C13.9583 51.5062 12.7021 50.2499 11.1667 50.2499ZM19.5417 53.0416C18.0063 53.0416 16.75 54.2978 16.75 55.8333C16.75 57.3687 18.0063 58.6249 19.5417 58.6249C21.0771 58.6249 22.3333 57.3687 22.3333 55.8333C22.3333 54.2978 21.0771 53.0416 19.5417 53.0416ZM42.7963 7.59326L27.3583 26.9395L37.2408 36.822L56.615 21.412C59.1275 19.2903 59.3229 15.4658 56.9779 13.1208L51.0875 7.23034C48.7425 4.88534 44.9179 5.08076 42.7963 7.59326ZM23.4221 34.8958L29.3125 40.7583C30.4292 41.8749 32.2158 41.8749 33.3046 40.7583L35.2588 38.8041L25.4042 28.9216L23.4221 30.9037C22.8987 31.4362 22.6054 32.153 22.6054 32.8997C22.6054 33.6464 22.8987 34.3632 23.4221 34.8958Z" fill="#E44444"/>
</svg>
