<svg width="67" height="67" viewBox="0 0 67 67" fill="none" xmlns="http://www.w3.org/2000/svg">
<g clip-path="url(#clip0_2528_1116)">
<path fill-rule="evenodd" clip-rule="evenodd" d="M32.7 10C35.2561 9.99933 37.7422 10.8393 39.778 12.3916C41.8138 13.9439 43.2874 16.123 43.9736 18.5958L44.1088 19.1311L48.9708 17.9117C49.3262 17.8228 49.6962 17.8104 50.0567 17.8752C50.4172 17.94 50.7601 18.0805 51.0627 18.2875C51.3652 18.4946 51.621 18.7636 51.8129 19.0768C52.005 19.39 52.1289 19.7404 52.1766 20.105L52.2 20.4444V25.1705C53.6666 26.5813 54.8679 28.246 55.7464 30.0846L56.1052 30.8889H57.4C58.0368 30.8889 58.6515 31.1238 59.1273 31.5487C59.6033 31.9737 59.9073 32.5594 59.9818 33.1945L60 33.5V41.3334C60 41.7631 59.8945 42.1862 59.6927 42.5652C59.4909 42.9441 59.199 43.2672 58.843 43.5058L58.5622 43.6676L55.5254 45.1951C54.2843 47.6121 52.4831 49.6942 50.2734 51.266L49.6 51.7204V54.3889C49.5998 55.0284 49.3662 55.6456 48.943 56.1237C48.5198 56.6016 47.9366 56.9069 47.3042 56.9817L47 57H39.2C38.5632 56.9998 37.9485 56.7652 37.4727 56.3402C36.9967 55.9152 36.6927 55.3295 36.6182 54.6944L36.6 54.3889H34C33.9998 55.0284 33.7662 55.6456 33.343 56.1237C32.9198 56.6016 32.3366 56.9069 31.7042 56.9817L31.4 57H23.6C22.9632 56.9998 22.3485 56.7652 21.8726 56.3402C21.3967 55.9152 21.0927 55.3295 21.0182 54.6944L21 54.3889V51.7204C19.121 50.5152 17.4979 48.9487 16.2244 47.1109C14.9509 45.273 14.052 43.2003 13.5796 41.0121C12.0461 40.5545 10.6897 39.6346 9.69444 38.3766C8.69915 37.1188 8.11306 35.5841 8.0156 33.9805L8 33.5V32.1945C8.00074 31.5289 8.25449 30.8888 8.70941 30.4048C9.16433 29.9209 9.78608 29.6298 10.4476 29.5907C11.1092 29.5517 11.7606 29.7679 12.2688 30.195C12.7769 30.6222 13.1035 31.2281 13.1818 31.889L13.2 32.1945V33.5C13.2035 33.8899 13.2815 34.2511 13.434 34.5836C13.8302 32.2327 14.7153 29.992 16.0314 28.0074C17.3476 26.0229 19.0654 24.3392 21.0728 23.066C20.8883 21.4223 21.0515 19.7579 21.5517 18.1819C22.0519 16.6059 22.8777 15.1537 23.9753 13.9203C25.0728 12.6869 26.4173 11.7001 27.9209 11.0246C29.4243 10.349 31.0528 9.99989 32.7 10ZM44.4 30.8889C43.7104 30.8889 43.0491 31.1639 42.5615 31.6537C42.0739 32.1434 41.8 32.8074 41.8 33.5C41.8 34.1926 42.0739 34.8566 42.5615 35.3463C43.0491 35.8361 43.7104 36.1111 44.4 36.1111C45.0896 36.1111 45.7509 35.8361 46.2385 35.3463C46.7261 34.8566 47 34.1926 47 33.5C47 32.8074 46.7261 32.1434 46.2385 31.6537C45.7509 31.1639 45.0896 30.8889 44.4 30.8889ZM32.7 15.2222C31.1252 15.2222 29.6039 15.7964 28.4189 16.8381C27.2339 17.8798 26.4657 19.3181 26.2572 20.8857C27.5171 20.5914 28.8064 20.4434 30.1 20.4444H38.8802L39.0622 20.4001C38.7539 18.9351 37.9534 17.6212 36.7952 16.6784C35.6368 15.7357 34.1909 15.2216 32.7 15.2222Z" fill="#E44444"/>
</g>
<defs>
<clipPath id="clip0_2528_1116">
<rect width="52" height="47" fill="white" transform="translate(8 10)"/>
</clipPath>
</defs>
</svg>
