<svg width="129" height="26" viewBox="0 0 129 26" fill="none" xmlns="http://www.w3.org/2000/svg">
<path d="M23.3263 17.6153C22.5497 18.064 21.5566 17.7977 21.1082 17.0205L18.6727 12.7986C18.2243 12.0214 18.4904 11.0276 19.267 10.5789L23.4855 8.14136C24.2621 7.69263 25.2552 7.95892 25.7035 8.73615L28.1391 12.958C28.5875 13.7352 28.3214 14.7291 27.5448 15.1778L23.3263 17.6153Z" fill="#01639A"/>
<path d="M1.40623 15.2166C0.629628 14.7679 0.363544 13.7741 0.811917 12.9968L3.24747 8.77497C3.69585 7.99774 4.68889 7.73144 5.4655 8.18018L9.684 10.6177C10.4606 11.0664 10.7267 12.0602 10.2783 12.8375L7.84276 17.0593C7.39439 17.8366 6.40135 18.1029 5.62474 17.6541L1.40623 15.2166Z" fill="#01639A"/>
<path d="M12.1059 8.125C11.2091 8.125 10.4822 7.39746 10.4822 6.5V1.625C10.4822 0.727537 11.2091 0 12.1059 0L16.977 0C17.8737 0 18.6007 0.727537 18.6007 1.625V6.5C18.6007 7.39746 17.8737 8.125 16.977 8.125H12.1059Z" fill="#01639A"/>
<path d="M12.1059 25.9999C11.2091 25.9999 10.4822 25.2724 10.4822 24.3749V19.4999C10.4822 18.6025 11.2091 17.8749 12.1059 17.8749H16.977C17.8737 17.8749 18.6007 18.6025 18.6007 19.4999V24.3749C18.6007 25.2724 17.8737 25.9999 16.977 25.9999H12.1059Z" fill="#01639A"/>
<path d="M13.7131 12.6852C13.7131 12.386 13.9555 12.1435 14.2544 12.1435H14.7956C15.0945 12.1435 15.3368 12.386 15.3368 12.6852V13.2268C15.3368 13.526 15.0945 13.7685 14.7956 13.7685H14.2544C13.9555 13.7685 13.7131 13.526 13.7131 13.2268V12.6852Z" fill="#01639A"/>
<path d="M38.0999 18.558V6.04554H42.7295C43.7305 6.04554 44.5587 6.21237 45.2141 6.54604C45.8695 6.8797 46.3581 7.3385 46.6799 7.92241C47.0016 8.50633 47.1625 9.16175 47.1625 9.88866C47.1625 10.5798 47.0076 11.2174 46.6977 11.8013C46.3879 12.3733 45.9053 12.838 45.2499 13.1955C44.5944 13.5411 43.7543 13.7139 42.7295 13.7139H40.3879V18.558H38.0999ZM40.3879 11.8549H42.5865C43.3849 11.8549 43.9569 11.6821 44.3025 11.3365C44.66 10.979 44.8387 10.4964 44.8387 9.88866C44.8387 9.269 44.66 8.78637 44.3025 8.44079C43.9569 8.08329 43.3849 7.90454 42.5865 7.90454H40.3879V11.8549Z" fill="#01639A"/>
<path d="M47.4669 18.558V9.69204H49.5046L49.7191 11.3544C50.0409 10.7824 50.4758 10.3296 51.024 9.99591C51.5841 9.65033 52.2395 9.47754 52.9902 9.47754V11.8907H52.3467C51.8462 11.8907 51.3994 11.9681 51.0061 12.123C50.6129 12.278 50.303 12.5461 50.0766 12.9274C49.8621 13.3087 49.7549 13.839 49.7549 14.5183V18.558H47.4669Z" fill="#01639A"/>
<path d="M57.2141 18.7725C56.3561 18.7725 55.5816 18.5759 54.8904 18.1827C54.2111 17.7894 53.6689 17.2472 53.2638 16.556C52.8705 15.853 52.6739 15.0426 52.6739 14.125C52.6739 13.2075 52.8765 12.4031 53.2816 11.7119C53.6868 11.0088 54.229 10.4607 54.9083 10.0674C55.5994 9.67416 56.374 9.47754 57.232 9.47754C58.0781 9.47754 58.8408 9.67416 59.52 10.0674C60.2112 10.4607 60.7534 11.0088 61.1466 11.7119C61.5518 12.4031 61.7544 13.2075 61.7544 14.125C61.7544 15.0426 61.5518 15.853 61.1466 16.556C60.7534 17.2472 60.2112 17.7894 59.52 18.1827C58.8289 18.5759 58.0602 18.7725 57.2141 18.7725ZM57.2141 16.7884C57.81 16.7884 58.3284 16.568 58.7693 16.127C59.2102 15.6742 59.4306 15.0069 59.4306 14.125C59.4306 13.2432 59.2102 12.5818 58.7693 12.1409C58.3284 11.6881 57.8159 11.4617 57.232 11.4617C56.6243 11.4617 56.0999 11.6881 55.659 12.1409C55.23 12.5818 55.0155 13.2432 55.0155 14.125C55.0155 15.0069 55.23 15.6742 55.659 16.127C56.0999 16.568 56.6183 16.7884 57.2141 16.7884Z" fill="#01639A"/>
<path d="M62.3631 18.558V9.69204H64.383L64.5617 11.1935C64.8358 10.6692 65.229 10.2521 65.7415 9.94229C66.2658 9.63246 66.8795 9.47754 67.5826 9.47754C68.6789 9.47754 69.531 9.82312 70.1387 10.5143C70.7465 11.2055 71.0503 12.2184 71.0503 13.553V18.558H68.7623V13.7675C68.7623 13.0049 68.6074 12.421 68.2976 12.0158C67.9877 11.6106 67.5051 11.408 66.8497 11.408C66.2062 11.408 65.6759 11.6345 65.2588 12.0873C64.8537 12.5401 64.6511 13.1717 64.6511 13.982V18.558H62.3631Z" fill="#01639A"/>
<path d="M75.7516 18.558C74.8221 18.558 74.0773 18.3316 73.5172 17.8788C72.9571 17.426 72.6771 16.6216 72.6771 15.4657V11.6047H71.1577V9.69204H72.6771L72.9452 7.31466H74.9651V9.69204H77.3603V11.6047H74.9651V15.4835C74.9651 15.9125 75.0544 16.2105 75.2332 16.3773C75.4238 16.5322 75.5165 16.6097 76.1984 16.6097H77.9413L78.4624 18.5348L75.7516 18.558Z" fill="#01639A"/>
<path d="M78.4624 18.5348V6.02228H86.6313V7.8634H80.7504V11.2954H86.095V13.0829H80.7504V16.6937H86.6313V18.5348H78.4624Z" fill="#01639A"/>
<path d="M85.9445 18.5348L89.162 14.1018L85.9445 9.66878H88.3934L90.6457 12.8148L92.88 9.66878H95.3468L92.1114 14.1018L95.3468 18.5348H92.88L90.6457 15.3888L88.3934 18.5348H85.9445Z" fill="#01639A"/>
<path d="M98.232 18.5348C97.4694 18.5348 96.8437 18.4156 96.3552 18.1773C95.8666 17.927 95.5031 17.5993 95.2648 17.1942C95.0264 16.789 94.9073 16.3421 94.9073 15.8535C94.9073 15.0313 95.229 14.3639 95.8725 13.8515C96.516 13.3391 97.4813 13.0829 98.7683 13.0829H101.021V12.8684C101.021 12.2607 100.848 11.8138 100.502 11.5278C100.157 11.2418 99.7276 11.0988 99.2152 11.0988C98.7504 11.0988 98.3452 11.212 97.9997 11.4384C97.6541 11.6529 97.4396 11.9747 97.3562 12.4037H95.1218C95.1814 11.7602 95.3959 11.2001 95.7653 10.7234C96.1466 10.2467 96.6352 9.88328 97.231 9.63303C97.8269 9.37086 98.4942 9.23978 99.233 9.23978C100.496 9.23978 101.491 9.55557 102.218 10.1872C102.945 10.8187 103.309 11.7125 103.309 12.8684V18.3203H101.36L101.146 16.8903C100.883 17.3669 100.514 17.7602 100.037 18.07C99.5727 18.3799 98.9709 18.5348 98.232 18.5348ZM98.7504 16.7473C99.4058 16.7473 99.9123 16.5328 100.27 16.1038C100.639 15.6748 100.872 15.1445 100.967 14.5129H99.0185C98.4108 14.5129 97.9758 14.6261 97.7137 14.8525C97.4515 15.067 97.3204 15.3352 97.3204 15.6569C97.3204 16.0025 97.4515 16.2706 97.7137 16.4613C97.9758 16.6519 98.3214 16.7473 98.7504 16.7473Z" fill="#01639A"/>
<path d="M104.055 18.3203V9.45428H106.075L106.271 10.6519C106.557 10.2229 106.933 9.88328 107.398 9.63303C107.874 9.37086 108.422 9.23978 109.042 9.23978C110.412 9.23978 111.384 9.77007 111.956 10.8307C112.277 10.3421 112.706 9.95478 113.243 9.66878C113.791 9.38278 114.387 9.23978 115.03 9.23978C116.186 9.23978 117.074 9.58536 117.694 10.2765C118.313 10.9677 118.623 11.9806 118.623 13.3153V18.3203H116.335V13.5298C116.335 12.7671 116.186 12.1832 115.888 11.778C115.602 11.3729 115.155 11.1703 114.548 11.1703C113.928 11.1703 113.427 11.3967 113.046 11.8495C112.677 12.3024 112.492 12.9339 112.492 13.7443V18.3203H110.204V13.5298C110.204 12.7671 110.055 12.1832 109.757 11.778C109.459 11.3729 109 11.1703 108.381 11.1703C107.773 11.1703 107.278 11.3967 106.897 11.8495C106.528 12.3024 106.343 12.9339 106.343 13.7443V18.3203H104.055Z" fill="#01639A"/>
<path d="M123.666 18.5348C122.772 18.5348 121.98 18.3441 121.289 17.9628C120.598 17.5814 120.055 17.0452 119.662 16.354C119.269 15.6629 119.072 14.8644 119.072 13.9588C119.072 13.0412 119.263 12.2249 119.644 11.5099C120.037 10.7949 120.574 10.2408 121.253 9.84753C121.944 9.44236 122.754 9.23978 123.684 9.23978C124.554 9.23978 125.323 9.43044 125.99 9.81178C126.657 10.1931 127.176 10.7174 127.545 11.3848C127.926 12.0402 128.117 12.7731 128.117 13.5834C128.117 13.7145 128.111 13.8515 128.099 13.9945C128.099 14.1375 128.093 14.2865 128.081 14.4414H121.342C121.39 15.1326 121.628 15.6748 122.057 16.068C122.498 16.4613 123.029 16.6579 123.648 16.6579C124.113 16.6579 124.5 16.5566 124.81 16.354C125.132 16.1395 125.37 15.8654 125.525 15.5318H127.849C127.682 16.0919 127.402 16.6043 127.009 17.069C126.627 17.5219 126.151 17.8794 125.579 18.1415C125.019 18.4037 124.381 18.5348 123.666 18.5348ZM123.684 11.0988C123.124 11.0988 122.629 11.2597 122.2 11.5814C121.771 11.8912 121.497 12.3679 121.378 13.0114H125.793C125.757 12.4275 125.543 11.9627 125.15 11.6172C124.756 11.2716 124.268 11.0988 123.684 11.0988Z" fill="#01639A"/>
</svg>
